<svg width="45" height="35" viewBox="0 0 45 35" fill="none" xmlns="http://www.w3.org/2000/svg">
<path fill-rule="evenodd" clip-rule="evenodd" d="M40.8748 0.0576171L4.12484 0.0576172C2.08317 0.0576172 0.0415039 1.97428 0.0415039 3.89095L0.0415039 30.7243C0.0415039 32.8326 1.879 34.5576 4.12484 34.5576L40.8748 34.5576C42.9165 34.5576 44.9582 32.6409 44.9582 30.7243L44.9582 3.89095C44.9582 1.97428 42.9165 0.0576171 40.8748 0.0576171ZM40.8748 30.571C40.834 30.6285 40.7523 30.686 40.7115 30.7244L4.12484 30.7244L4.12484 4.04435L4.28817 3.89102L40.6911 3.89102C40.7523 3.92935 40.8136 4.00602 40.8544 4.04435L40.8544 30.571L40.8748 30.571ZM20.4581 24.0351L15.3539 18.266L8.20811 26.891L36.7915 26.891L27.6039 15.391L20.4581 24.0351Z" fill="#232323"/>
</svg>
