<svg width="26" height="26" viewBox="0 0 26 26" fill="none" xmlns="http://www.w3.org/2000/svg">
<path d="M1.77295 1.30762H4.57501C4.83113 1.30761 5.07927 1.39927 5.27683 1.56687C5.4744 1.73447 5.60906 1.96755 5.65771 2.22611L8.2288 15.899C8.27744 16.1576 8.41209 16.3907 8.60965 16.5584C8.80721 16.726 9.05535 16.8178 9.3115 16.8178H22.4548" stroke="white" stroke-width="2" stroke-miterlimit="10" stroke-linecap="round"/>
<path d="M6.5459 4.573H22.9195C23.0945 4.57296 23.2671 4.61496 23.4236 4.69566C23.5802 4.77637 23.7163 4.89356 23.8212 5.03793C23.9261 5.18231 23.9969 5.34989 24.028 5.52738C24.0591 5.70488 24.0496 5.8874 24.0003 6.06045L22.3373 11.9021C22.2688 12.1428 22.1264 12.3542 21.9315 12.5046C21.7366 12.655 21.4997 12.7363 21.2562 12.7363H8.16517" stroke="white" stroke-width="2" stroke-miterlimit="10"/>
<path d="M10.9208 24.1646C12.0191 24.1646 12.9094 23.2509 12.9094 22.1238C12.9094 20.9967 12.0191 20.083 10.9208 20.083C9.82247 20.083 8.93213 20.9967 8.93213 22.1238C8.93213 23.2509 9.82247 24.1646 10.9208 24.1646Z" stroke="white" stroke-width="2" stroke-miterlimit="10"/>
<path d="M18.8754 24.1646C19.9736 24.1646 20.864 23.2509 20.864 22.1238C20.864 20.9967 19.9736 20.083 18.8754 20.083C17.7771 20.083 16.8867 20.9967 16.8867 22.1238C16.8867 23.2509 17.7771 24.1646 18.8754 24.1646Z" stroke="white" stroke-width="2" stroke-miterlimit="10"/>
</svg>
