<svg width="17" height="17" viewBox="0 0 17 17" fill="none" xmlns="http://www.w3.org/2000/svg">
<path fill-rule="evenodd" clip-rule="evenodd" d="M16.226 14.5116L12.9286 11.2141C13.7225 10.0663 14.12 8.78728 14.12 7.37698C14.12 6.4614 13.9428 5.58457 13.5863 4.74746C13.2309 3.91081 12.7503 3.18955 12.1446 2.58366C11.539 1.97873 10.8181 1.49803 9.98105 1.14208C9.14396 0.785642 8.26812 0.607666 7.35132 0.607666C6.43451 0.607666 5.55756 0.785642 4.72158 1.14208C3.88449 1.49803 3.16367 1.97873 2.558 2.58366C1.95233 3.18955 1.47178 3.91081 1.11524 4.74746C0.759804 5.58457 0.581543 6.4614 0.581543 7.37698C0.581543 8.29398 0.759804 9.1708 1.11524 10.0075C1.47178 10.8441 1.95233 11.5654 2.558 12.1708C3.16367 12.7762 3.88449 13.2564 4.72158 13.6133C5.55756 13.9688 6.43451 14.1463 7.35132 14.1463C8.76197 14.1463 10.0408 13.7492 11.188 12.9542L14.4854 16.2424C14.7168 16.4857 15.0047 16.6077 15.3513 16.6077C15.6845 16.6077 15.9724 16.4857 16.216 16.2424C16.4596 15.9999 16.5814 15.7103 16.5814 15.3772C16.5814 15.0376 16.4629 14.7494 16.226 14.5116ZM10.3941 10.4209C9.55144 11.2636 8.53718 11.6845 7.35132 11.6845C6.16544 11.6845 5.1512 11.2631 4.30747 10.4209C3.46485 9.57767 3.04408 8.56258 3.04408 7.37698C3.04408 6.19184 3.46485 5.17722 4.30747 4.33451C5.1512 3.49085 6.16544 3.06995 7.35132 3.06995C8.53718 3.06995 9.55144 3.49085 10.3941 4.33451C11.2378 5.17722 11.6585 6.19184 11.6585 7.37698C11.6585 8.56258 11.2378 9.57767 10.3941 10.4209Z" fill="#232323"/>
</svg>
