<svg width="56" height="50" viewBox="0 0 56 50" fill="none" xmlns="http://www.w3.org/2000/svg">
<path d="M15.5556 43.4569C13.0667 43.4569 10.5778 41.2994 9.33333 40.3748C3.11111 36.0599 1.24444 34.5188 0 33.5942V46.539C0 48.2409 1.39319 49.6211 3.11111 49.6211H28C29.7179 49.6211 31.1111 48.2409 31.1111 46.539V33.5942C29.8667 34.5188 28 36.0599 21.7778 40.3748C20.5333 41.2994 18.0444 43.4569 15.5556 43.4569ZM28 24.9643H3.11111C1.39319 24.9643 0 26.3445 0 28.0464V29.5875C2.48889 31.4367 2.17778 31.4367 11.2 37.9091C12.1333 38.5255 14 40.3748 15.5556 40.3748C17.1111 40.3748 18.9778 38.5255 19.9111 38.2173C28.9333 31.7449 28.6222 31.7449 31.1111 29.8957V28.0464C31.1111 26.3445 29.7179 24.9643 28 24.9643ZM52.8889 15.7181H21.7778C20.0599 15.7181 18.6667 17.0983 18.6667 18.8002V21.8822H28C31.2288 21.8822 33.8907 24.3306 34.194 27.4512L34.2222 27.43V40.3748H52.8889C54.6068 40.3748 56 38.9946 56 37.2927V18.8002C56 17.0983 54.6068 15.7181 52.8889 15.7181ZM49.7778 28.0464H43.5556V21.8822H49.7778V28.0464ZM15.5556 18.8002C15.5556 15.4012 18.3468 12.636 21.7778 12.636H43.5556V3.38971C43.5556 1.68782 42.1624 0.307617 40.4444 0.307617H9.33333C7.61542 0.307617 6.22222 1.68782 6.22222 3.38971V21.8822H15.5556V18.8002Z" fill="white" fill-opacity="0.37"/>
</svg>
