<svg width="61" height="13" viewBox="0 0 61 13" fill="none" xmlns="http://www.w3.org/2000/svg">
<path d="M0.352 12.3076L1.792 0.651617H5.792C6.46933 0.651617 7.048 0.715617 7.528 0.843616C8.01333 0.971617 8.408 1.15562 8.712 1.39562C9.02133 1.63028 9.24533 1.91562 9.384 2.25162C9.528 2.58228 9.6 2.95028 9.6 3.35562C9.6 3.67562 9.55733 3.98495 9.472 4.28362C9.392 4.57695 9.26133 4.84895 9.08 5.09962C8.904 5.35028 8.67467 5.57962 8.392 5.78762C8.10933 5.99028 7.768 6.16095 7.368 6.29962C7.99733 6.47028 8.46133 6.73695 8.76 7.09962C9.064 7.45695 9.216 7.91028 9.216 8.45962C9.216 8.99828 9.112 9.50228 8.904 9.97162C8.70133 10.4356 8.40533 10.841 8.016 11.1876C7.62667 11.5343 7.152 11.809 6.592 12.0116C6.03733 12.209 5.408 12.3076 4.704 12.3076H0.352ZM3.568 7.33162L3.2 10.3476H4.912C5.232 10.3476 5.50133 10.3023 5.72 10.2116C5.93867 10.1156 6.11467 9.98495 6.248 9.81962C6.38667 9.64895 6.48533 9.45162 6.544 9.22762C6.608 9.00362 6.64 8.75828 6.64 8.49162C6.64 8.31562 6.616 8.15562 6.568 8.01162C6.52533 7.86762 6.448 7.74762 6.336 7.65162C6.22933 7.55028 6.08533 7.47295 5.904 7.41962C5.728 7.36095 5.50933 7.33162 5.248 7.33162H3.568ZM3.776 5.60362H5.024C5.31733 5.60362 5.58133 5.57428 5.816 5.51562C6.05067 5.45695 6.25067 5.35828 6.416 5.21962C6.58667 5.07562 6.71733 4.88628 6.808 4.65162C6.89867 4.41695 6.944 4.12628 6.944 3.77962C6.944 3.34762 6.82933 3.04362 6.6 2.86762C6.376 2.68628 6.02667 2.59562 5.552 2.59562H4.144L3.776 5.60362ZM12.8563 12.3076H10.2323L11.6562 0.651617H14.2803L12.8563 12.3076ZM24.0386 0.651617L23.7666 2.71562H20.8066L19.6226 12.3076H17.0306L18.1986 2.71562H15.2226L15.4786 0.651617H24.0386ZM27.0108 5.41962H27.3948C27.5814 5.41962 27.7468 5.39028 27.8908 5.33162C28.0348 5.26762 28.1521 5.16895 28.2428 5.03562L31.0108 1.17162C31.1601 0.963616 31.3308 0.82495 31.5228 0.755616C31.7148 0.686283 31.9388 0.651617 32.1948 0.651617H34.4508L30.7868 5.41162C30.6641 5.57695 30.5361 5.71295 30.4028 5.81962C30.2694 5.92628 30.1308 6.01695 29.9868 6.09162C30.1681 6.16628 30.3281 6.26762 30.4668 6.39562C30.6054 6.51828 30.7228 6.68628 30.8188 6.89962L33.2828 12.3076H30.9628C30.8134 12.3076 30.6854 12.297 30.5788 12.2756C30.4774 12.2543 30.3894 12.225 30.3148 12.1876C30.2454 12.145 30.1868 12.0943 30.1388 12.0356C30.0908 11.9716 30.0508 11.9023 30.0188 11.8276L28.2108 7.73162C28.1414 7.57695 28.0401 7.47028 27.9068 7.41162C27.7788 7.34762 27.6028 7.31562 27.3788 7.31562H26.7788L26.1628 12.3076H23.5708L24.9948 0.651617H27.6028L27.0108 5.41962ZM44.5721 5.73162C44.5721 6.36095 44.4975 6.96362 44.3481 7.53962C44.2041 8.11562 43.9961 8.65162 43.7241 9.14762C43.4575 9.64362 43.1321 10.0943 42.7481 10.4996C42.3695 10.905 41.9428 11.2516 41.4681 11.5396C40.9935 11.8223 40.4788 12.0436 39.9241 12.2036C39.3695 12.3583 38.7855 12.4356 38.1721 12.4356C37.4041 12.4356 36.7135 12.3023 36.1001 12.0356C35.4921 11.7636 34.9748 11.3956 34.5481 10.9316C34.1215 10.4623 33.7935 9.91295 33.5641 9.28362C33.3401 8.64895 33.2281 7.96628 33.2281 7.23562C33.2281 6.60628 33.3001 6.00362 33.4441 5.42762C33.5935 4.84628 33.8015 4.30762 34.0681 3.81162C34.3401 3.31562 34.6681 2.86495 35.0521 2.45962C35.4361 2.05428 35.8655 1.71028 36.3401 1.42762C36.8148 1.13962 37.3295 0.918283 37.8841 0.763617C38.4388 0.603617 39.0255 0.523617 39.6441 0.523617C40.4068 0.523617 41.0921 0.659617 41.7001 0.931617C42.3135 1.19828 42.8308 1.56628 43.2521 2.03562C43.6788 2.50495 44.0041 3.05695 44.2281 3.69162C44.4575 4.32628 44.5721 5.00628 44.5721 5.73162ZM41.9001 5.79562C41.9001 5.31562 41.8415 4.88095 41.7241 4.49162C41.6121 4.09695 41.4441 3.76095 41.2201 3.48362C41.0015 3.20095 40.7321 2.98495 40.4121 2.83562C40.0921 2.68095 39.7295 2.60362 39.3241 2.60362C38.7908 2.60362 38.3135 2.71562 37.8921 2.93962C37.4708 3.15828 37.1108 3.46762 36.8121 3.86762C36.5188 4.26762 36.2921 4.75028 36.1321 5.31562C35.9775 5.87562 35.9001 6.49695 35.9001 7.17962C35.9001 7.65962 35.9561 8.09428 36.0681 8.48362C36.1801 8.87295 36.3428 9.20628 36.5561 9.48362C36.7748 9.76095 37.0441 9.97695 37.3641 10.1316C37.6841 10.281 38.0495 10.3556 38.4601 10.3556C38.9935 10.3556 39.4708 10.2463 39.8921 10.0276C40.3188 9.80895 40.6788 9.49962 40.9721 9.09962C41.2708 8.69962 41.5001 8.21962 41.6601 7.65962C41.8201 7.09962 41.9001 6.47828 41.9001 5.79562ZM47.7469 12.3076H45.1229L46.5469 0.651617H49.1709L47.7469 12.3076ZM52.4493 0.651617C52.5613 0.651617 52.6546 0.65695 52.7293 0.667617C52.8093 0.67295 52.8786 0.691616 52.9373 0.723617C53.0013 0.750283 53.0573 0.790283 53.1053 0.843616C53.1533 0.89695 53.2013 0.966283 53.2493 1.05162L57.3373 8.25162C57.3479 8.06495 57.3639 7.88628 57.3853 7.71562C57.4066 7.54495 57.4253 7.38495 57.4413 7.23562L58.2253 0.651617H60.5293L59.0893 12.3076H57.7292C57.5266 12.3076 57.3586 12.2783 57.2253 12.2196C57.0919 12.161 56.9773 12.0463 56.8813 11.8756L52.8093 4.68362C52.7986 4.83295 52.7853 4.97695 52.7693 5.11562C52.7586 5.25428 52.7479 5.38495 52.7373 5.50762L51.9373 12.3076H49.6333L51.0733 0.651617H52.4493Z" fill="#FF8717" fill-opacity="0.65"/>
</svg>
