<svg width="57" height="13" viewBox="0 0 57 13" fill="none" xmlns="http://www.w3.org/2000/svg">
<path d="M3.424 8.37962L2.944 12.3076H0.352L1.776 0.651617H5.632C6.32533 0.651617 6.91733 0.73695 7.408 0.907617C7.904 1.07295 8.30933 1.30495 8.624 1.60362C8.944 1.89695 9.17867 2.24628 9.328 2.65162C9.47733 3.05162 9.552 3.48362 9.552 3.94762C9.552 4.58228 9.45333 5.17162 9.256 5.71562C9.064 6.25428 8.768 6.72095 8.368 7.11562C7.968 7.51028 7.46133 7.81962 6.848 8.04362C6.23467 8.26762 5.50933 8.37962 4.672 8.37962H3.424ZM4.144 2.59562L3.672 6.41962H4.928C5.30133 6.41962 5.61333 6.36628 5.864 6.25962C6.12 6.14762 6.32533 5.99295 6.48 5.79562C6.64 5.59295 6.75467 5.35295 6.824 5.07562C6.89333 4.79828 6.928 4.49428 6.928 4.16362C6.928 3.93428 6.896 3.72362 6.832 3.53162C6.77333 3.33962 6.68 3.17428 6.552 3.03562C6.424 2.89695 6.26133 2.79028 6.064 2.71562C5.872 2.63562 5.64267 2.59562 5.376 2.59562H4.144ZM17.9175 2.65962H13.6055L13.2535 5.47562H16.5575L16.3015 7.41162H13.0135L12.6615 10.2996H17.0055L16.7495 12.3076H9.7895L11.2295 0.651617H18.1735L17.9175 2.65962ZM24.1108 7.84362L23.5588 12.3076H20.9508L21.5028 7.86762L18.5028 0.651617H20.8228C21.0468 0.651617 21.2201 0.70495 21.3428 0.811617C21.4708 0.91295 21.5641 1.04895 21.6228 1.21962L22.7428 4.74762C22.8174 4.98228 22.8841 5.20895 22.9428 5.42762C23.0068 5.64628 23.0601 5.85695 23.1028 6.05962C23.2041 5.85695 23.3161 5.64895 23.4388 5.43562C23.5614 5.21695 23.6921 4.98762 23.8308 4.74762L25.8148 1.21962C25.8948 1.07562 26.0121 0.94495 26.1667 0.827617C26.3214 0.710284 26.5081 0.651617 26.7268 0.651617H28.8868L24.1108 7.84362ZM31.1896 8.37962L30.7096 12.3076H28.1176L29.5416 0.651617H33.3976C34.091 0.651617 34.683 0.73695 35.1736 0.907617C35.6696 1.07295 36.075 1.30495 36.3896 1.60362C36.7096 1.89695 36.9443 2.24628 37.0936 2.65162C37.243 3.05162 37.3176 3.48362 37.3176 3.94762C37.3176 4.58228 37.219 5.17162 37.0216 5.71562C36.8296 6.25428 36.5336 6.72095 36.1336 7.11562C35.7336 7.51028 35.227 7.81962 34.6136 8.04362C34.0003 8.26762 33.275 8.37962 32.4376 8.37962H31.1896ZM31.9096 2.59562L31.4376 6.41962H32.6936C33.067 6.41962 33.379 6.36628 33.6296 6.25962C33.8856 6.14762 34.091 5.99295 34.2456 5.79562C34.4056 5.59295 34.5203 5.35295 34.5896 5.07562C34.659 4.79828 34.6936 4.49428 34.6936 4.16362C34.6936 3.93428 34.6616 3.72362 34.5976 3.53162C34.539 3.33962 34.4456 3.17428 34.3176 3.03562C34.1896 2.89695 34.027 2.79028 33.8296 2.71562C33.6376 2.63562 33.4083 2.59562 33.1416 2.59562H31.9096ZM48.9471 5.73162C48.9471 6.36095 48.8725 6.96362 48.7231 7.53962C48.5791 8.11562 48.3711 8.65162 48.0991 9.14762C47.8325 9.64362 47.5071 10.0943 47.1231 10.4996C46.7445 10.905 46.3178 11.2516 45.8431 11.5396C45.3685 11.8223 44.8538 12.0436 44.2991 12.2036C43.7445 12.3583 43.1605 12.4356 42.5471 12.4356C41.7791 12.4356 41.0885 12.3023 40.4751 12.0356C39.8671 11.7636 39.3498 11.3956 38.9231 10.9316C38.4965 10.4623 38.1685 9.91295 37.9391 9.28362C37.7151 8.64895 37.6031 7.96628 37.6031 7.23562C37.6031 6.60628 37.6751 6.00362 37.8191 5.42762C37.9685 4.84628 38.1765 4.30762 38.4431 3.81162C38.7151 3.31562 39.0431 2.86495 39.4271 2.45962C39.8111 2.05428 40.2405 1.71028 40.7151 1.42762C41.1898 1.13962 41.7045 0.918283 42.2591 0.763617C42.8138 0.603617 43.4005 0.523617 44.0191 0.523617C44.7818 0.523617 45.4671 0.659617 46.0751 0.931617C46.6885 1.19828 47.2058 1.56628 47.6271 2.03562C48.0538 2.50495 48.3791 3.05695 48.6031 3.69162C48.8325 4.32628 48.9471 5.00628 48.9471 5.73162ZM46.2751 5.79562C46.2751 5.31562 46.2165 4.88095 46.0991 4.49162C45.9871 4.09695 45.8191 3.76095 45.5951 3.48362C45.3765 3.20095 45.1071 2.98495 44.7871 2.83562C44.4671 2.68095 44.1045 2.60362 43.6991 2.60362C43.1658 2.60362 42.6885 2.71562 42.2671 2.93962C41.8458 3.15828 41.4858 3.46762 41.1871 3.86762C40.8938 4.26762 40.6671 4.75028 40.5071 5.31562C40.3525 5.87562 40.2751 6.49695 40.2751 7.17962C40.2751 7.65962 40.3311 8.09428 40.4431 8.48362C40.5551 8.87295 40.7178 9.20628 40.9311 9.48362C41.1498 9.76095 41.4191 9.97695 41.7391 10.1316C42.0591 10.281 42.4245 10.3556 42.8351 10.3556C43.3685 10.3556 43.8458 10.2463 44.2671 10.0276C44.6938 9.80895 45.0538 9.49962 45.3471 9.09962C45.6458 8.69962 45.8751 8.21962 46.0351 7.65962C46.1951 7.09962 46.2751 6.47828 46.2751 5.79562ZM52.1379 10.2276H56.0579L55.8019 12.3076H49.2739L50.7139 0.651617H53.3219L52.1379 10.2276Z" fill="#6CC0E3" fill-opacity="0.65"/>
</svg>
