<svg width="33" height="13" viewBox="0 0 33 13" fill="none" xmlns="http://www.w3.org/2000/svg">
<path d="M0.944 0.651617H3.04C3.264 0.651617 3.44267 0.70495 3.576 0.811617C3.70933 0.918283 3.792 1.05428 3.824 1.21962L5.04 7.64362C5.088 7.90495 5.144 8.20095 5.208 8.53162C5.27733 8.85695 5.33333 9.18762 5.376 9.52362C5.488 9.18762 5.616 8.85962 5.76 8.53962C5.904 8.21428 6.032 7.91562 6.144 7.64362L8.864 1.21962C8.896 1.15028 8.94133 1.08095 9 1.01162C9.05867 0.942283 9.128 0.88095 9.208 0.827617C9.29333 0.774283 9.384 0.731617 9.48 0.699616C9.58133 0.667617 9.68533 0.651617 9.792 0.651617H11.904L6.176 12.3076H3.808L0.944 0.651617ZM19.9603 12.3076H17.9443C17.7203 12.3076 17.5389 12.257 17.4003 12.1556C17.2669 12.049 17.1869 11.9103 17.1603 11.7396L16.8003 9.64362H12.8403L11.9763 11.7396C11.9176 11.889 11.8029 12.0223 11.6323 12.1396C11.4616 12.2516 11.2723 12.3076 11.0643 12.3076H9.01625L14.5843 0.651617H17.2563L19.9603 12.3076ZM13.5683 7.86762H16.4963L15.9283 4.53962C15.8803 4.26228 15.8269 3.98228 15.7683 3.69962C15.7149 3.41162 15.6696 3.15028 15.6323 2.91562C15.5896 3.04362 15.5336 3.19028 15.4643 3.35562C15.3949 3.51562 15.3256 3.67295 15.2563 3.82762C15.1923 3.98228 15.1283 4.12628 15.0643 4.25962C15.0056 4.39295 14.9629 4.49162 14.9363 4.55562L13.5683 7.86762ZM27.8016 2.98762C27.711 3.11562 27.6176 3.20895 27.5216 3.26762C27.431 3.32628 27.3216 3.35562 27.1936 3.35562C27.071 3.35562 26.9483 3.31562 26.8256 3.23562C26.703 3.15562 26.5643 3.06762 26.4096 2.97162C26.2603 2.87562 26.087 2.78762 25.8896 2.70762C25.6923 2.62762 25.4603 2.58762 25.1936 2.58762C24.9483 2.58762 24.7323 2.62228 24.5456 2.69162C24.3643 2.76095 24.2123 2.85695 24.0896 2.97962C23.967 3.10228 23.8736 3.24628 23.8096 3.41162C23.751 3.57695 23.7216 3.75828 23.7216 3.95562C23.7216 4.16895 23.7803 4.34762 23.8976 4.49162C24.0203 4.63562 24.1803 4.76362 24.3776 4.87562C24.5803 4.98228 24.807 5.08095 25.0576 5.17162C25.3083 5.26228 25.5643 5.36095 25.8256 5.46762C26.0923 5.57428 26.351 5.69695 26.6016 5.83562C26.8576 5.97428 27.0843 6.14762 27.2816 6.35562C27.4843 6.56362 27.6443 6.81428 27.7616 7.10762C27.8843 7.40095 27.9456 7.75295 27.9456 8.16362C27.9456 8.75028 27.8443 9.30228 27.6416 9.81962C27.439 10.337 27.1483 10.7903 26.7696 11.1796C26.391 11.5636 25.9296 11.8703 25.3856 12.0996C24.847 12.3236 24.239 12.4356 23.5616 12.4356C23.2256 12.4356 22.887 12.3983 22.5456 12.3236C22.2096 12.249 21.8843 12.145 21.5696 12.0116C21.2603 11.873 20.9723 11.7103 20.7056 11.5236C20.439 11.337 20.2123 11.129 20.0256 10.8996L20.9536 9.68362C21.023 9.59295 21.1136 9.51828 21.2256 9.45962C21.3376 9.40095 21.4496 9.37162 21.5616 9.37162C21.711 9.37162 21.855 9.42495 21.9936 9.53162C22.1376 9.63295 22.295 9.74762 22.4656 9.87562C22.6363 9.99828 22.8336 10.113 23.0576 10.2196C23.287 10.321 23.567 10.3716 23.8976 10.3716C24.383 10.3716 24.7563 10.241 25.0176 9.97962C25.2843 9.71295 25.4176 9.32095 25.4176 8.80362C25.4176 8.56362 25.3563 8.36628 25.2336 8.21162C25.1163 8.05695 24.959 7.92628 24.7616 7.81962C24.5696 7.71295 24.3483 7.61962 24.0976 7.53962C23.847 7.45428 23.591 7.36362 23.3296 7.26762C23.0683 7.17162 22.8123 7.05962 22.5616 6.93162C22.311 6.79828 22.087 6.62762 21.8896 6.41962C21.6976 6.20628 21.5403 5.94762 21.4176 5.64362C21.3003 5.33428 21.2416 4.95562 21.2416 4.50762C21.2416 3.99028 21.3376 3.49428 21.5296 3.01962C21.727 2.53962 22.007 2.11562 22.3696 1.74762C22.7323 1.37962 23.1723 1.08628 23.6896 0.867617C24.207 0.64895 24.7883 0.539617 25.4336 0.539617C25.7643 0.539617 26.0843 0.574283 26.3936 0.643617C26.7083 0.71295 27.0016 0.80895 27.2736 0.931617C27.5456 1.05428 27.7936 1.20095 28.0176 1.37162C28.2416 1.53695 28.431 1.71828 28.5856 1.91562L27.8016 2.98762ZM31.4656 12.3076H28.8416L30.2656 0.651617H32.8896L31.4656 12.3076Z" fill="#3D7BD8" fill-opacity="0.65"/>
</svg>
