<svg width="102" height="13" viewBox="0 0 102 13" fill="none" xmlns="http://www.w3.org/2000/svg">
<path d="M6.48375 7.18762C6.59575 7.52362 6.69175 7.86762 6.77175 8.21962C6.85708 8.04362 6.94508 7.87028 7.03575 7.69962C7.13175 7.52895 7.23042 7.35828 7.33175 7.18762L10.8998 1.05162C11.0064 0.870283 11.1398 0.758283 11.2998 0.715616C11.4598 0.67295 11.6144 0.651617 11.7638 0.651617H13.8118L12.3718 12.3076H10.0838L10.8998 5.52362C10.9158 5.37962 10.9398 5.22228 10.9718 5.05162C11.0091 4.87562 11.0491 4.69428 11.0918 4.50762L7.58775 10.5236C7.48108 10.705 7.34242 10.841 7.17175 10.9316C7.00108 11.017 6.81442 11.0596 6.61175 11.0596H6.25975C6.05708 11.0596 5.87842 11.0143 5.72375 10.9236C5.57442 10.833 5.47042 10.6996 5.41175 10.5236L3.36375 4.49162C3.35308 4.67295 3.34242 4.84895 3.33175 5.01962C3.32642 5.19028 3.31575 5.34495 3.29975 5.48362L2.49975 12.3076H0.19575L1.63575 0.651617H3.61975C3.73175 0.651617 3.83042 0.654284 3.91575 0.659616C4.00108 0.66495 4.07575 0.68095 4.13975 0.707617C4.20908 0.72895 4.26775 0.766283 4.31575 0.819616C4.36375 0.87295 4.40375 0.950283 4.43575 1.05162L6.48375 7.18762ZM24.0071 12.3076H21.9911C21.7671 12.3076 21.5858 12.257 21.4471 12.1556C21.3138 12.049 21.2338 11.9103 21.2071 11.7396L20.8471 9.64362H16.8871L16.0231 11.7396C15.9645 11.889 15.8498 12.0223 15.6791 12.1396C15.5085 12.2516 15.3191 12.3076 15.1111 12.3076H13.0631L18.6311 0.651617H21.3031L24.0071 12.3076ZM17.6151 7.86762H20.5431L19.9751 4.53962C19.9271 4.26228 19.8738 3.98228 19.8151 3.69962C19.7618 3.41162 19.7165 3.15028 19.6791 2.91562C19.6365 3.04362 19.5805 3.19028 19.5111 3.35562C19.4418 3.51562 19.3725 3.67295 19.3031 3.82762C19.2391 3.98228 19.1751 4.12628 19.1111 4.25962C19.0525 4.39295 19.0098 4.49162 18.9831 4.55562L17.6151 7.86762ZM31.8485 2.98762C31.7578 3.11562 31.6645 3.20895 31.5685 3.26762C31.4778 3.32628 31.3685 3.35562 31.2405 3.35562C31.1178 3.35562 30.9952 3.31562 30.8725 3.23562C30.7498 3.15562 30.6112 3.06762 30.4565 2.97162C30.3072 2.87562 30.1338 2.78762 29.9365 2.70762C29.7392 2.62762 29.5072 2.58762 29.2405 2.58762C28.9952 2.58762 28.7792 2.62228 28.5925 2.69162C28.4112 2.76095 28.2592 2.85695 28.1365 2.97962C28.0138 3.10228 27.9205 3.24628 27.8565 3.41162C27.7978 3.57695 27.7685 3.75828 27.7685 3.95562C27.7685 4.16895 27.8272 4.34762 27.9445 4.49162C28.0672 4.63562 28.2272 4.76362 28.4245 4.87562C28.6272 4.98228 28.8538 5.08095 29.1045 5.17162C29.3552 5.26228 29.6112 5.36095 29.8725 5.46762C30.1392 5.57428 30.3978 5.69695 30.6485 5.83562C30.9045 5.97428 31.1312 6.14762 31.3285 6.35562C31.5312 6.56362 31.6912 6.81428 31.8085 7.10762C31.9312 7.40095 31.9925 7.75295 31.9925 8.16362C31.9925 8.75028 31.8912 9.30228 31.6885 9.81962C31.4858 10.337 31.1952 10.7903 30.8165 11.1796C30.4378 11.5636 29.9765 11.8703 29.4325 12.0996C28.8938 12.3236 28.2858 12.4356 27.6085 12.4356C27.2725 12.4356 26.9338 12.3983 26.5925 12.3236C26.2565 12.249 25.9312 12.145 25.6165 12.0116C25.3072 11.873 25.0192 11.7103 24.7525 11.5236C24.4858 11.337 24.2592 11.129 24.0725 10.8996L25.0005 9.68362C25.0698 9.59295 25.1605 9.51828 25.2725 9.45962C25.3845 9.40095 25.4965 9.37162 25.6085 9.37162C25.7578 9.37162 25.9018 9.42495 26.0405 9.53162C26.1845 9.63295 26.3418 9.74762 26.5125 9.87562C26.6832 9.99828 26.8805 10.113 27.1045 10.2196C27.3338 10.321 27.6138 10.3716 27.9445 10.3716C28.4298 10.3716 28.8032 10.241 29.0645 9.97962C29.3312 9.71295 29.4645 9.32095 29.4645 8.80362C29.4645 8.56362 29.4032 8.36628 29.2805 8.21162C29.1632 8.05695 29.0058 7.92628 28.8085 7.81962C28.6165 7.71295 28.3952 7.61962 28.1445 7.53962C27.8938 7.45428 27.6378 7.36362 27.3765 7.26762C27.1152 7.17162 26.8592 7.05962 26.6085 6.93162C26.3578 6.79828 26.1338 6.62762 25.9365 6.41962C25.7445 6.20628 25.5872 5.94762 25.4645 5.64362C25.3472 5.33428 25.2885 4.95562 25.2885 4.50762C25.2885 3.99028 25.3845 3.49428 25.5765 3.01962C25.7738 2.53962 26.0538 2.11562 26.4165 1.74762C26.7792 1.37962 27.2192 1.08628 27.7365 0.867617C28.2538 0.64895 28.8352 0.539617 29.4805 0.539617C29.8112 0.539617 30.1312 0.574283 30.4405 0.643617C30.7552 0.71295 31.0485 0.80895 31.3205 0.931617C31.5925 1.05428 31.8405 1.20095 32.0645 1.37162C32.2885 1.53695 32.4778 1.71828 32.6325 1.91562L31.8485 2.98762ZM41.9605 0.651617L41.6885 2.71562H38.7285L37.5445 12.3076H34.9525L36.1205 2.71562H33.1445L33.4005 0.651617H41.9605ZM49.6206 2.65962H45.3086L44.9566 5.47562H48.2606L48.0046 7.41162H44.7166L44.3646 10.2996H48.7086L48.4526 12.3076H41.4926L42.9326 0.651617H49.8766L49.6206 2.65962ZM52.9019 7.95562L52.3659 12.3076H49.7739L51.1979 0.651617H54.7339C55.4485 0.651617 56.0565 0.72895 56.5579 0.883616C57.0645 1.03295 57.4779 1.24095 57.7979 1.50762C58.1179 1.77428 58.3499 2.09162 58.4939 2.45962C58.6432 2.82228 58.7179 3.21695 58.7179 3.64362C58.7179 4.07562 58.6592 4.48362 58.5419 4.86762C58.4299 5.25162 58.2645 5.60628 58.0459 5.93162C57.8272 6.25162 57.5579 6.53695 57.2379 6.78762C56.9232 7.03295 56.5632 7.23562 56.1579 7.39562C56.3179 7.48628 56.4672 7.59562 56.6059 7.72362C56.7499 7.85162 56.8619 8.01162 56.9419 8.20362L58.6379 12.3076H56.2859C56.0672 12.3076 55.8832 12.265 55.7339 12.1796C55.5845 12.0943 55.4805 11.9716 55.4219 11.8116L54.1579 8.36362C54.0992 8.21428 54.0192 8.11028 53.9179 8.05162C53.8219 7.98762 53.6779 7.95562 53.4859 7.95562H52.9019ZM53.5659 2.59562L53.1259 6.15562H54.0779C54.4512 6.15562 54.7685 6.09962 55.0299 5.98762C55.2912 5.87028 55.5019 5.71562 55.6619 5.52362C55.8272 5.33162 55.9445 5.10762 56.0139 4.85162C56.0885 4.59562 56.1259 4.32628 56.1259 4.04362C56.1259 3.82495 56.0939 3.62762 56.0299 3.45162C55.9659 3.27028 55.8645 3.11828 55.7259 2.99562C55.5925 2.86762 55.4219 2.76895 55.2139 2.69962C55.0112 2.63028 54.7712 2.59562 54.4939 2.59562H53.5659Z" fill="#FF4B4B" fill-opacity="0.65"/>
<path d="M63.042 5.41962H63.426C63.6127 5.41962 63.778 5.39028 63.922 5.33162C64.066 5.26762 64.1833 5.16895 64.274 5.03562L67.042 1.17162C67.1913 0.963616 67.362 0.82495 67.554 0.755616C67.746 0.686283 67.97 0.651617 68.226 0.651617H70.482L66.818 5.41162C66.6953 5.57695 66.5673 5.71295 66.434 5.81962C66.3007 5.92628 66.162 6.01695 66.018 6.09162C66.1993 6.16628 66.3593 6.26762 66.498 6.39562C66.6367 6.51828 66.754 6.68628 66.85 6.89962L69.314 12.3076H66.994C66.8447 12.3076 66.7167 12.297 66.61 12.2756C66.5087 12.2543 66.4207 12.225 66.346 12.1876C66.2767 12.145 66.218 12.0943 66.17 12.0356C66.122 11.9716 66.082 11.9023 66.05 11.8276L64.242 7.73162C64.1727 7.57695 64.0713 7.47028 63.938 7.41162C63.81 7.34762 63.634 7.31562 63.41 7.31562H62.81L62.194 12.3076H59.602L61.026 0.651617H63.634L63.042 5.41962ZM80.1165 12.3076H78.1005C77.8765 12.3076 77.6952 12.257 77.5565 12.1556C77.4232 12.049 77.3432 11.9103 77.3165 11.7396L76.9565 9.64362H72.9965L72.1325 11.7396C72.0738 11.889 71.9592 12.0223 71.7885 12.1396C71.6178 12.2516 71.4285 12.3076 71.2205 12.3076H69.1725L74.7405 0.651617H77.4125L80.1165 12.3076ZM73.7245 7.86762H76.6525L76.0845 4.53962C76.0365 4.26228 75.9832 3.98228 75.9245 3.69962C75.8712 3.41162 75.8258 3.15028 75.7885 2.91562C75.7458 3.04362 75.6898 3.19028 75.6205 3.35562C75.5512 3.51562 75.4818 3.67295 75.4125 3.82762C75.3485 3.98228 75.2845 4.12628 75.2205 4.25962C75.1618 4.39295 75.1192 4.49162 75.0925 4.55562L73.7245 7.86762ZM83.9019 7.95562L83.3659 12.3076H80.7739L82.1979 0.651617H85.7339C86.4485 0.651617 87.0565 0.72895 87.5579 0.883616C88.0645 1.03295 88.4779 1.24095 88.7979 1.50762C89.1179 1.77428 89.3499 2.09162 89.4939 2.45962C89.6432 2.82228 89.7179 3.21695 89.7179 3.64362C89.7179 4.07562 89.6592 4.48362 89.5419 4.86762C89.4299 5.25162 89.2645 5.60628 89.0459 5.93162C88.8272 6.25162 88.5579 6.53695 88.2379 6.78762C87.9232 7.03295 87.5632 7.23562 87.1579 7.39562C87.3179 7.48628 87.4672 7.59562 87.6059 7.72362C87.7499 7.85162 87.8619 8.01162 87.9419 8.20362L89.6379 12.3076H87.2859C87.0672 12.3076 86.8832 12.265 86.7339 12.1796C86.5845 12.0943 86.4805 11.9716 86.4219 11.8116L85.1579 8.36362C85.0992 8.21428 85.0192 8.11028 84.9179 8.05162C84.8219 7.98762 84.6779 7.95562 84.4859 7.95562H83.9019ZM84.5659 2.59562L84.1259 6.15562H85.0779C85.4512 6.15562 85.7685 6.09962 86.0299 5.98762C86.2912 5.87028 86.5019 5.71562 86.6619 5.52362C86.8272 5.33162 86.9445 5.10762 87.0139 4.85162C87.0885 4.59562 87.1259 4.32628 87.1259 4.04362C87.1259 3.82495 87.0939 3.62762 87.0299 3.45162C86.9659 3.27028 86.8645 3.11828 86.7259 2.99562C86.5925 2.86762 86.4219 2.76895 86.2139 2.69962C86.0112 2.63028 85.7712 2.59562 85.4939 2.59562H84.5659ZM101.178 5.73162C101.178 6.36628 101.106 6.96895 100.962 7.53962C100.818 8.10495 100.613 8.63295 100.346 9.12362C100.079 9.60895 99.754 10.049 99.37 10.4436C98.9913 10.833 98.5647 11.1663 98.09 11.4436C97.6207 11.721 97.106 11.9343 96.546 12.0836C95.9913 12.233 95.4073 12.3076 94.794 12.3076H90.602L92.042 0.651617H96.234C96.9967 0.651617 97.682 0.782283 98.29 1.04362C98.9033 1.29962 99.4233 1.65428 99.85 2.10762C100.277 2.56095 100.605 3.09695 100.834 3.71562C101.063 4.33428 101.178 5.00628 101.178 5.73162ZM98.506 5.79562C98.506 5.32095 98.45 4.89162 98.338 4.50762C98.2313 4.11828 98.0687 3.78762 97.85 3.51562C97.6367 3.24362 97.3727 3.03295 97.058 2.88362C96.7433 2.73428 96.3833 2.65962 95.978 2.65962H94.41L93.482 10.2996H95.05C95.5833 10.2996 96.0633 10.1956 96.49 9.98762C96.9167 9.77428 97.2793 9.47295 97.578 9.08362C97.8767 8.69428 98.106 8.22228 98.266 7.66762C98.426 7.11295 98.506 6.48895 98.506 5.79562Z" fill="#FF8A00" fill-opacity="0.65"/>
</svg>
