<svg width="54" height="55" viewBox="0 0 54 55" fill="none" xmlns="http://www.w3.org/2000/svg">
<path d="M26.6479 45.6676H26.6302C26.511 45.6672 26.3928 45.6455 26.2811 45.6035C26.1708 45.5643 26.0628 45.5187 25.9577 45.4669C25.8351 45.4089 25.6226 45.3055 25.3103 45.1431C24.8475 44.9031 24.1028 44.5008 23.1828 43.9505C21.6378 43.0265 19.3914 41.5551 17.4629 39.795C13.1751 35.8804 12.2836 28.9921 12.2477 28.7006L12.2402 28.6365V15.418C12.2391 14.505 12.5589 13.621 13.1432 12.9214C13.7275 12.2219 14.5389 11.7517 15.4346 11.5937L25.9325 9.72971C26.3999 9.6469 26.8782 9.6469 27.3456 9.72971L37.8435 11.5937C38.7396 11.7512 39.5516 12.2212 40.1364 12.9208C40.7212 13.6204 41.0413 14.5047 41.0402 15.418V28.6365L41.0328 28.7006C40.9969 28.9921 40.1072 35.8804 35.8171 39.795C33.8891 41.5551 31.6427 43.0265 30.0977 43.9505C29.1777 44.5008 28.4329 44.9031 27.9701 45.1431C27.6579 45.3055 27.4453 45.4089 27.3228 45.4669C27.2177 45.5188 27.1097 45.5644 26.9993 45.6035C26.887 45.6458 26.7679 45.6675 26.6479 45.6676ZM14.3375 28.5003C14.4307 29.1451 15.3554 35.0265 18.8736 38.2375C21.7105 40.8262 25.4581 42.8726 26.6391 43.4593C27.8201 42.8726 31.5676 40.8262 34.404 38.2375C37.9214 35.028 38.8498 29.1497 38.943 28.5003V15.418C38.9436 15 38.7973 14.5952 38.5297 14.2749C38.2622 13.9546 37.8906 13.7394 37.4805 13.6672L26.9802 11.8033C26.7546 11.763 26.5236 11.763 26.2979 11.8033L15.8 13.6672C15.3899 13.7394 15.0183 13.9546 14.7507 14.2749C14.4832 14.5952 14.3368 15 14.3375 15.418V28.5003Z" fill="#FF723D"/>
<path d="M26.6316 40.6271C26.4972 40.627 26.3641 40.6 26.2401 40.5479C26.1597 40.5166 26.081 40.481 26.0043 40.4412C25.8808 40.3786 25.7252 40.2956 25.554 40.2003C25.2366 40.0239 24.7263 39.7294 24.0972 39.3262C23.0399 38.649 21.5034 37.5715 20.1782 36.2778C17.2043 33.373 16.594 28.2981 16.5667 28.0833L16.5601 28.0226V18.4514C16.5601 16.9442 17.5848 15.6557 18.9968 15.3878L26.0883 14.04C26.4522 13.9702 26.826 13.9702 27.1899 14.04L34.2828 15.3878C35.6953 15.6557 36.7201 16.9442 36.7201 18.4514V28.0231L36.713 28.0838C36.6885 28.2986 36.0759 33.3735 33.1019 36.2783C31.7786 37.5711 30.2403 38.6495 29.1829 39.3267C28.5533 39.7298 28.0435 40.0243 27.7262 40.2008C27.555 40.2956 27.3993 40.3791 27.2758 40.4417C27.1991 40.4814 27.1204 40.517 27.04 40.5484C26.9136 40.6025 26.7774 40.6295 26.6401 40.6276L26.6316 40.6271ZM18.6837 27.8931C18.7539 28.4105 19.3769 32.5175 21.6581 34.7465C23.4313 36.4784 25.7138 37.8551 26.6405 38.3659C27.5691 37.8551 29.8502 36.4784 31.6235 34.7465C33.9032 32.5175 34.5266 28.4139 34.5979 27.8922V18.4514C34.5979 17.9771 34.2932 17.5612 33.8905 17.4844L26.7976 16.1366C26.694 16.1169 26.5876 16.1169 26.484 16.1366L19.3925 17.4839C18.9883 17.5608 18.6851 17.9767 18.6851 18.4509L18.6837 27.8931Z" fill="#FF723D"/>
</svg>
