<svg width="54" height="55" viewBox="0 0 54 55" fill="none" xmlns="http://www.w3.org/2000/svg">
<path d="M31.3106 30.5476H22.6893C17.3162 30.5476 12.96 34.5555 12.96 39.4999V39.8537C12.96 40.4409 13.2135 41.004 13.6647 41.4192C14.1159 41.8344 14.7279 42.0676 15.366 42.0676H38.6339C39.272 42.0676 39.884 41.8344 40.3352 41.4192C40.7865 41.004 41.04 40.4409 41.04 39.8537V39.4999C41.04 34.5555 36.6837 30.5476 31.3106 30.5476Z" fill="#FF723D"/>
<path d="M27.0002 27.6676C30.7778 27.6676 33.8402 24.444 33.8402 20.4676C33.8402 16.4911 30.7778 13.2676 27.0002 13.2676C23.2225 13.2676 20.1602 16.4911 20.1602 20.4676C20.1602 24.444 23.2225 27.6676 27.0002 27.6676Z" fill="#FF723D"/>
</svg>
