<svg width="54" height="55" viewBox="0 0 54 55" fill="none" xmlns="http://www.w3.org/2000/svg">
<path d="M15.305 28.3876L7.91992 39.2954L13.9389 38.3789L15.02 44.9476L22.3199 34.5167L15.305 28.3876Z" fill="#FF723D"/>
<path d="M38.6951 28.3876L46.0802 39.2954L40.0612 38.3789L38.9801 44.9476L31.6802 34.5167L38.6951 28.3876Z" fill="#FF723D"/>
<path d="M27.0006 36.3076C23.9189 36.3076 20.9326 35.2392 18.5504 33.2843C16.1682 31.3294 14.5375 28.609 13.9362 25.5865C13.3349 22.5641 13.8002 19.4267 15.2528 16.7089C16.7054 13.9911 19.0555 11.861 21.9025 10.6817C24.7496 9.50229 27.9175 9.34658 30.8664 10.2411C33.8154 11.1355 36.363 13.0249 38.0752 15.5871C39.7873 18.1494 40.558 21.226 40.256 24.2929C39.9541 27.3597 38.598 30.2269 36.419 32.406C35.1851 33.6468 33.7173 34.6306 32.1006 35.3003C30.4839 35.97 28.7505 36.3123 27.0006 36.3076ZM27.0006 11.7903C20.8262 11.7903 15.8033 16.8132 15.8033 22.9876C15.8033 29.162 20.8262 34.1848 27.0006 34.1848C33.175 34.1848 38.1979 29.1615 38.1979 22.9876C38.1979 16.8137 33.175 11.7903 27.0006 11.7903Z" fill="#FF723D"/>
<path d="M27.3602 13.9877C25.6514 13.9877 23.9809 14.4944 22.5601 15.4438C21.1393 16.3931 20.0318 17.7425 19.3779 19.3213C18.724 20.9 18.5529 22.6373 18.8862 24.3132C19.2196 25.9892 20.0425 27.5287 21.2508 28.7371C22.4591 29.9454 23.9986 30.7683 25.6746 31.1017C27.3506 31.435 29.0878 31.2639 30.6666 30.61C32.2454 29.956 33.5947 28.8486 34.5441 27.4278C35.4935 26.007 36.0002 24.3365 36.0002 22.6277C36.0002 20.3362 35.0899 18.1386 33.4696 16.5183C31.8493 14.898 29.6517 13.9877 27.3602 13.9877ZM26.2784 27.429L21.4993 23.4084L23.2056 21.3804L26.0049 23.7366L31.235 17.8264L33.2195 19.5825L26.2784 27.429Z" fill="#FF723D"/>
</svg>
