<svg width="54" height="55" viewBox="0 0 54 55" fill="none" xmlns="http://www.w3.org/2000/svg">
<path d="M26.9939 45.6676C22.758 45.6646 18.6534 44.1979 15.3752 41.5159C12.0971 38.834 9.84692 35.1016 9.00586 30.9509C8.1648 26.8003 8.78456 22.4866 10.7602 18.7405C12.7358 14.9944 15.9458 12.0462 19.8464 10.3951C24.3335 8.49993 29.3898 8.46443 33.903 10.2965C38.4163 12.1285 42.0167 15.678 43.9123 20.1641C45.8079 24.6502 45.8434 29.7054 44.011 34.2176C42.1786 38.7299 38.6283 42.3296 34.1413 44.2248C31.8801 45.1815 29.4492 45.6722 26.9939 45.6676ZM26.9939 10.795C23.1723 10.7951 19.4691 12.1199 16.5151 14.5438C13.561 16.9677 11.539 20.3407 10.7935 24.088C10.0481 27.8353 10.6253 31.7251 12.4267 35.0946C14.2282 38.4641 17.1426 41.1049 20.6732 42.567C24.2039 44.0291 28.1324 44.222 31.7893 43.1129C35.4463 42.0037 38.6054 39.6612 40.7286 36.4844C42.8517 33.3076 43.8074 29.4931 43.4328 25.6908C43.0582 21.8885 41.3765 18.3337 38.6743 15.632C37.144 14.0937 35.3236 12.8741 33.3187 12.0438C31.3137 11.2135 29.164 10.7891 26.9939 10.795Z" fill="#FF723D"/>
<path d="M28.0799 9.6676H25.9199V44.9476H28.0799V9.6676Z" fill="#FF723D"/>
<path d="M26.2737 45.6676C26.1774 45.6473 23.9014 45.1414 21.6635 42.6846C20.3771 41.2733 19.3553 39.4981 18.6266 37.4084C17.7314 34.8457 17.2798 31.7965 17.2798 28.3451C17.2798 24.446 17.7081 21.0139 18.5527 18.1437C19.2416 15.8039 20.2088 13.8233 21.4272 12.2576C23.1401 10.0574 25.032 9.14092 25.8793 8.94763L26.2656 10.7538H26.2737C25.6596 10.9064 24.1252 11.6879 22.7176 13.5542C21.668 14.9456 20.8287 16.7176 20.224 18.8221C19.4573 21.4897 19.0684 24.6948 19.0684 28.3478C19.0684 31.5385 19.4748 34.3463 20.2768 36.6875C20.9079 38.5307 21.7834 40.0904 22.88 41.3232C24.3647 42.9926 25.9885 43.7116 26.6398 43.8587H26.6344L26.2737 45.6676Z" fill="#FF723D"/>
<path d="M28.1205 45.6676L27.7342 43.8642H27.7261C28.3404 43.7116 29.8751 42.9301 31.2832 41.0638C32.3331 39.6723 33.1726 37.9003 33.7775 35.7963C34.5444 33.1281 34.9335 29.9236 34.9335 26.2704C34.9335 23.0797 34.5269 20.2723 33.7246 17.9306C33.0933 16.0874 32.2176 14.5281 31.1207 13.2953C29.6356 11.6255 28.0113 10.9065 27.3599 10.7594H27.3652L27.7234 8.94763C27.8197 8.96798 30.0963 9.47433 32.3349 11.9307C33.6217 13.3425 34.6438 15.1177 35.3727 17.207C36.2681 19.7697 36.7199 22.8189 36.7199 26.2704C36.7199 30.1696 36.2914 33.6017 35.4466 36.4719C34.7575 38.8122 33.79 40.7923 32.5713 42.3581C30.8606 44.5606 28.9681 45.4757 28.1205 45.6676Z" fill="#FF723D"/>
<path d="M42.401 35.5877C42.3932 35.5837 41.5584 35.1773 39.2776 34.7778C37.1879 34.4117 33.4141 33.975 27.3045 33.975C15.4651 33.975 11.4535 35.4227 11.4144 35.4376L10.7998 33.5641C10.967 33.4995 15.0431 31.9877 27.3045 31.9877C32.4333 31.9877 36.6356 32.2798 39.7949 32.8556C42.1988 33.2943 43.1044 33.7469 43.1998 33.7966L42.3918 35.5852L42.401 35.5877Z" fill="#FF723D"/>
<path d="M26.6939 23.3477C21.5656 23.3477 17.3636 23.1139 14.2044 22.6529C11.8008 22.3023 10.8952 21.9402 10.7998 21.9001L11.6101 20.4712L11.6009 20.4677C11.6087 20.4708 12.4434 20.7956 14.7236 21.1155C16.8135 21.4084 20.5872 21.7578 26.6962 21.7578C38.5371 21.7578 42.5462 20.5996 42.5853 20.5877L43.1998 22.0865C43.0298 22.1382 38.9545 23.3477 26.6939 23.3477Z" fill="#FF723D"/>
</svg>
