<svg width="54" height="55" viewBox="0 0 54 55" fill="none" xmlns="http://www.w3.org/2000/svg">
<path d="M16.2971 38.1962C15.2011 38.5073 13.9773 38.7076 12.6402 38.7076C9.69211 38.7076 7.51769 36.7788 6.67624 34.5943L16.2971 38.1962ZM16.2971 38.1962C19.223 43.033 24.7737 45.9076 30.6402 45.9076C32.509 45.9076 34.3182 45.6195 36.0124 45.0816C37.3401 45.5658 38.8936 45.9076 40.6402 45.9076C43.5357 45.9076 45.7411 44.0302 46.6016 41.8011C47.3454 39.8817 47.1261 37.7414 46.0596 36.0275C46.6861 34.449 47.0402 32.7263 47.0402 30.9076C47.0402 24.4666 42.7565 19.5024 37.5045 17.281C34.7538 11.9391 28.705 8.70764 22.6402 8.70764C14.4256 8.70764 6.24023 14.6361 6.24023 23.7076C6.24023 25.5286 6.5951 27.2491 7.22049 28.8244C6.09993 30.6155 5.97636 32.7773 6.67623 34.5943L16.2971 38.1962Z" fill="#FF723D" stroke="white" stroke-width="12"/>
</svg>
