<svg width="54" height="55" viewBox="0 0 54 55" fill="none" xmlns="http://www.w3.org/2000/svg">
<rect y="0.307617" width="54" height="54" rx="12" fill="#FF7020" fill-opacity="0.23"/>
<path d="M38.4776 21.1238C38.1901 20.0152 37.3429 19.1421 36.2673 18.8458C34.3177 18.3074 26.5 18.3074 26.5 18.3074C26.5 18.3074 18.6823 18.3074 16.7327 18.8458C15.6571 19.1422 14.8099 20.0152 14.5224 21.1238C14 23.1332 14 27.3256 14 27.3256C14 27.3256 14 31.518 14.5224 33.5274C14.8099 34.636 15.6571 35.4727 16.7327 35.769C18.6823 36.3074 26.5 36.3074 26.5 36.3074C26.5 36.3074 34.3177 36.3074 36.2673 35.769C37.3429 35.4727 38.1901 34.636 38.4776 33.5274C39 31.518 39 27.3256 39 27.3256C39 27.3256 39 23.1332 38.4776 21.1238ZM23.9432 31.132V23.5192L30.4772 27.3257L23.9432 31.132Z" fill="#FF7020"/>
</svg>
