<svg width="54" height="55" viewBox="0 0 54 55" fill="none" xmlns="http://www.w3.org/2000/svg">
<rect y="0.307617" width="54" height="54" rx="12" fill="#CBCBCB" fill-opacity="0.23"/>
<path d="M34.8286 18.3079H18.3671C17.6129 18.3079 17 18.9034 17 19.6345V35.3813C17 36.1123 17.6129 36.7079 18.3671 36.7079H34.8286C35.5829 36.7079 36.2 36.1123 36.2 35.3813V19.6345C36.2 18.9034 35.5829 18.3079 34.8286 18.3079ZM22.8029 34.0793H19.9571V25.2982H22.8071V34.0793H22.8029ZM21.38 24.0989C20.4671 24.0989 19.73 23.3884 19.73 22.5177C19.73 21.647 20.4671 20.9364 21.38 20.9364C22.2886 20.9364 23.03 21.647 23.03 22.5177C23.03 23.3925 22.2929 24.0989 21.38 24.0989ZM33.47 34.0793H30.6243V29.8079C30.6243 28.7893 30.6029 27.4791 29.1457 27.4791C27.6629 27.4791 27.4357 28.588 27.4357 29.7339V34.0793H24.59V25.2982H27.32V26.4975H27.3586C27.74 25.8075 28.67 25.0805 30.0543 25.0805C32.9343 25.0805 33.47 26.9 33.47 29.2657V34.0793Z" fill="#4E4E4E" fill-opacity="0.45"/>
</svg>
