<svg width="54" height="55" viewBox="0 0 54 55" fill="none" xmlns="http://www.w3.org/2000/svg">
<rect y="0.307617" width="54" height="54" rx="12" fill="#CBCBCB" fill-opacity="0.23"/>
<path d="M33.7908 23.1939C33.802 23.3644 33.802 23.535 33.802 23.7056C33.802 28.9076 30.1726 34.9015 23.5391 34.9015C21.4954 34.9015 19.597 34.2558 18 33.135C18.2904 33.1716 18.5695 33.1837 18.8711 33.1837C20.5573 33.1837 22.1096 32.5624 23.3492 31.5025C21.7634 31.466 20.4345 30.333 19.9766 28.7736C20.2 28.8101 20.4233 28.8345 20.6579 28.8345C20.9817 28.8345 21.3056 28.7857 21.6071 28.7005C19.9543 28.335 18.7147 26.7513 18.7147 24.8386V24.7899C19.1949 25.0822 19.7533 25.265 20.3451 25.2893C19.3736 24.5827 18.737 23.3766 18.737 22.0122C18.737 21.2812 18.9157 20.6112 19.2284 20.0264C21.004 22.4142 23.6731 23.9736 26.6659 24.1441C26.6101 23.8518 26.5766 23.5472 26.5766 23.2426C26.5766 21.0741 28.1847 19.3076 30.1837 19.3076C31.2223 19.3076 32.1603 19.7827 32.8192 20.5503C33.6344 20.3797 34.4162 20.0508 35.1086 19.6C34.8405 20.5137 34.271 21.2812 33.5228 21.7685C34.2487 21.6833 34.9522 21.4639 35.5999 21.1594C35.1086 21.9391 34.4944 22.6335 33.7908 23.1939Z" fill="#4E4E4E" fill-opacity="0.45"/>
</svg>
