<svg width="54" height="55" viewBox="0 0 54 55" fill="none" xmlns="http://www.w3.org/2000/svg">
<rect y="0.307617" width="54" height="54" rx="12" fill="#CBCBCB" fill-opacity="0.23"/>
<path d="M26.802 22.595C24.3048 22.595 22.2906 24.6096 22.2906 27.1074C22.2906 29.6051 24.3048 31.6198 26.802 31.6198C29.2991 31.6198 31.3134 29.6051 31.3134 27.1074C31.3134 24.6096 29.2991 22.595 26.802 22.595ZM26.802 30.041C25.1882 30.041 23.869 28.7254 23.869 27.1074C23.869 25.4893 25.1843 24.1737 26.802 24.1737C28.4196 24.1737 29.735 25.4893 29.735 27.1074C29.735 28.7254 28.4157 30.041 26.802 30.041ZM32.5502 22.4104C32.5502 22.9955 32.079 23.4629 31.4979 23.4629C30.9129 23.4629 30.4456 22.9916 30.4456 22.4104C30.4456 21.8291 30.9168 21.3579 31.4979 21.3579C32.079 21.3579 32.5502 21.8291 32.5502 22.4104ZM35.5382 23.4786C35.4714 22.0687 35.1494 20.8198 34.1168 19.7909C33.0881 18.762 31.8395 18.4399 30.4299 18.3692C28.9772 18.2868 24.6228 18.2868 23.1701 18.3692C21.7644 18.436 20.5158 18.758 19.4832 19.787C18.4506 20.8159 18.1325 22.0648 18.0618 23.4747C17.9794 24.9277 17.9794 29.2831 18.0618 30.7362C18.1286 32.146 18.4506 33.3949 19.4832 34.4239C20.5158 35.4528 21.7605 35.7748 23.1701 35.8455C24.6228 35.928 28.9772 35.928 30.4299 35.8455C31.8395 35.7788 33.0881 35.4567 34.1168 34.4239C35.1455 33.3949 35.4675 32.146 35.5382 30.7362C35.6206 29.2831 35.6206 24.9317 35.5382 23.4786ZM33.6613 32.2953C33.3551 33.065 32.7622 33.658 31.9887 33.9683C30.8304 34.4278 28.082 34.3217 26.802 34.3217C25.522 34.3217 22.7696 34.4239 21.6152 33.9683C20.8456 33.662 20.2528 33.0689 19.9426 32.2953C19.4832 31.1367 19.5892 28.3877 19.5892 27.1074C19.5892 25.8271 19.4871 23.0741 19.9426 21.9195C20.2488 21.1497 20.8417 20.5567 21.6152 20.2465C22.7735 19.787 25.522 19.893 26.802 19.893C28.082 19.893 30.8344 19.7909 31.9887 20.2465C32.7583 20.5528 33.3512 21.1458 33.6613 21.9195C34.1207 23.078 34.0147 25.8271 34.0147 27.1074C34.0147 28.3877 34.1207 31.1407 33.6613 32.2953Z" fill="#4E4E4E" fill-opacity="0.45"/>
</svg>
